<?xml version="1.0" standalone="no"?>
<!DOCTYPE svg PUBLIC "-//W3C//DTD SVG 20010904//EN"
 "http://www.w3.org/TR/2001/REC-SVG-20010904/DTD/svg10.dtd">
<svg version="1.0" xmlns="http://www.w3.org/2000/svg"
 width="400.000000pt" height="400.000000pt" viewBox="0 0 400.000000 400.000000"
 preserveAspectRatio="xMidYMid meet">
<metadata>
Created by potrace 1.11, written by Peter Selinger 2001-2013
</metadata>
<g transform="translate(0.000000,400.000000) scale(0.100000,-0.100000)"
fill="#000000" stroke="none">
<path d="M1155 3063 c-44 -8 -87 -16 -95 -20 -8 -3 -19 -7 -25 -8 -5 -1 -13
-3 -17 -5 -5 -1 -12 -4 -18 -5 -5 -1 -12 -4 -15 -5 -3 -1 -8 -3 -12 -5 -23 -6
-50 -20 -67 -34 -16 -13 -18 -13 -11 -1 5 8 -4 5 -19 -8 -16 -12 -35 -22 -42
-22 -8 0 -14 -4 -14 -8 0 -5 -12 -14 -27 -21 -16 -7 -35 -19 -43 -27 -8 -8
-33 -28 -55 -45 -55 -42 -124 -109 -160 -154 -16 -21 -36 -44 -43 -52 -7 -7
-10 -13 -5 -13 4 0 3 -4 -2 -8 -23 -17 -102 -158 -97 -174 1 -5 -3 -8 -9 -8
-5 0 -7 -4 -4 -10 3 -5 1 -10 -6 -10 -7 0 -9 -3 -6 -7 4 -3 2 -12 -4 -20 -6
-7 -8 -13 -4 -13 4 0 2 -7 -5 -15 -7 -8 -10 -15 -7 -15 4 0 0 -18 -8 -40 -8
-22 -14 -42 -15 -45 0 -3 0 -6 -1 -7 -17 -58 -34 -328 -20 -328 3 0 7 -24 9
-53 2 -47 8 -92 12 -92 3 0 22 -85 23 -102 0 -7 3 -13 7 -13 4 0 7 -6 8 -12 2
-28 20 -75 48 -129 7 -14 11 -29 7 -33 -3 -3 -1 -6 6 -6 7 0 9 -4 6 -10 -3 -5
-2 -10 4 -10 5 0 13 -10 17 -22 8 -27 73 -130 88 -140 6 -4 8 -8 4 -8 -5 0 1
-10 11 -22 11 -13 35 -43 55 -66 20 -24 36 -42 36 -39 0 3 18 -12 39 -32 76
-70 89 -81 100 -81 6 0 11 -4 11 -8 0 -7 60 -44 163 -101 20 -11 37 -18 37
-15 0 4 6 2 13 -4 12 -10 118 -53 134 -54 5 0 18 -4 31 -9 29 -11 70 -20 102
-22 14 -1 28 -6 32 -12 8 -11 381 -14 443 -3 22 4 55 11 73 17 17 5 32 8 32 6
0 -4 129 38 160 52 8 3 17 7 20 8 21 5 97 51 107 64 7 9 13 13 13 8 0 -8 140
130 140 138 0 3 8 14 18 24 27 31 37 44 68 92 16 24 31 46 34 49 10 10 80 120
80 126 0 3 12 24 28 47 41 64 123 202 131 222 2 6 7 12 10 15 9 8 52 83 58
103 3 9 9 17 14 17 4 0 16 17 26 38 9 20 20 39 23 42 3 3 23 33 44 68 21 34
41 62 46 62 5 0 12 10 16 22 3 12 12 27 18 33 6 7 22 27 36 45 62 83 175 200
245 256 28 21 53 44 57 49 4 6 8 6 8 1 0 -5 8 -2 18 6 9 9 45 29 79 46 52 25
73 33 126 47 4 2 8 3 10 4 16 14 244 20 305 9 31 -6 32 -5 32 27 0 52 -11 92
-31 114 -11 11 -19 23 -19 27 0 17 -146 124 -170 124 -5 0 -10 4 -10 8 0 5 -6
9 -12 9 -7 1 -38 10 -69 22 -31 11 -67 22 -80 25 -13 2 -44 9 -69 15 -25 6
-88 9 -140 7 -92 -4 -118 -7 -163 -22 -12 -5 -26 -8 -32 -9 -33 -4 -187 -82
-218 -111 -14 -13 -29 -24 -33 -24 -24 0 -294 -308 -294 -335 0 -3 -5 -11 -10
-18 -39 -46 -49 -61 -60 -87 -7 -17 -16 -30 -20 -30 -4 0 -13 -13 -20 -30 -7
-16 -17 -30 -22 -30 -5 0 -7 -4 -3 -9 3 -5 1 -12 -4 -16 -9 -5 -17 -19 -58
-97 -9 -18 -19 -35 -23 -38 -4 -3 -26 -41 -50 -85 -24 -44 -47 -82 -50 -85 -8
-6 -37 -58 -46 -82 -3 -10 -10 -18 -15 -18 -5 0 -9 -6 -9 -14 0 -8 -6 -21 -12
-28 -7 -7 -34 -45 -61 -84 -26 -40 -58 -83 -72 -98 -13 -14 -22 -26 -19 -26 2
0 -20 -25 -51 -55 -30 -30 -57 -55 -60 -55 -3 0 -14 -8 -24 -17 -48 -44 -85
-66 -95 -56 -3 3 -6 1 -6 -5 0 -8 -34 -21 -70 -27 -3 0 -9 -3 -15 -6 -27 -16
-208 3 -275 29 -8 3 -17 6 -20 7 -68 17 -151 60 -228 117 -106 79 -208 215
-214 286 -1 6 -5 12 -8 12 -4 0 -11 15 -15 33 -4 17 -9 39 -11 47 -2 8 -5 27
-6 43 -1 15 -5 27 -8 27 -3 0 -5 32 -5 70 0 39 3 70 6 70 9 0 6 27 -4 36 -4 4
-2 12 3 19 5 6 10 27 11 46 2 19 7 40 12 47 5 6 7 12 3 12 -11 0 43 110 68
137 14 15 26 31 26 36 0 4 5 5 10 2 6 -3 10 -1 10 5 0 16 126 73 164 74 17 1
37 5 44 10 6 4 12 4 12 -1 0 -4 19 -8 43 -8 43 1 149 -31 155 -46 2 -5 9 -9
17 -9 16 0 111 -98 107 -111 -1 -5 2 -9 8 -9 6 0 9 -3 8 -7 -1 -5 4 -21 10
-36 7 -16 10 -32 7 -37 -3 -5 -2 -11 3 -14 18 -11 20 -230 1 -253 -1 -2 -2 -6
-4 -10 -7 -27 -21 -51 -41 -69 -13 -12 -21 -24 -18 -27 3 -2 -9 -10 -26 -17
-16 -7 -30 -16 -30 -20 0 -9 -137 -54 -167 -55 -12 0 -24 -3 -28 -7 -4 -4 -13
-4 -21 -1 -8 3 -14 1 -14 -4 0 -10 77 -38 93 -35 4 1 7 -3 7 -10 0 -6 2 -9 5
-6 3 3 31 -1 63 -10 60 -15 264 -22 317 -10 68 16 105 30 105 40 0 6 3 8 7 5
10 -11 84 38 142 93 62 58 164 226 176 289 2 9 4 16 5 16 3 0 11 39 13 62 1
13 5 23 9 23 12 0 0 194 -15 242 -8 26 -12 49 -9 52 3 4 0 6 -6 6 -7 0 -12 7
-12 15 0 20 -49 119 -61 123 -5 2 -7 8 -3 13 3 5 0 9 -5 9 -6 0 -11 4 -11 10
0 15 -28 48 -117 137 -45 45 -91 84 -102 88 -12 3 -21 11 -21 16 0 5 -7 9 -15
9 -8 0 -15 4 -15 8 0 5 -16 14 -35 22 -19 8 -35 18 -35 22 0 5 -4 6 -10 3 -5
-3 -10 -1 -10 4 0 6 -3 10 -7 9 -5 -1 -21 4 -38 11 -16 7 -37 14 -45 16 -8 2
-16 4 -17 5 -2 2 -6 3 -10 4 -5 1 -14 5 -20 9 -7 5 -17 6 -22 2 -5 -3 -12 -1
-16 4 -3 5 -13 10 -23 10 -9 0 -37 3 -62 6 -86 12 -155 11 -235 -2z"/>
</g>
</svg>
